<svg width="24" height="25" viewBox="0 0 24 25" fill="none" xmlns="http://www.w3.org/2000/svg">
<path fill-rule="evenodd" clip-rule="evenodd" d="M5.29289 5.79291C5.68342 5.40239 6.31658 5.40239 6.70711 5.79291L12 11.0858L17.2929 5.79291C17.6834 5.40239 18.3166 5.40239 18.7071 5.79291C19.0977 6.18344 19.0977 6.8166 18.7071 7.20713L13.4142 12.5L18.7071 17.7929C19.0976 18.1835 19.0976 18.8166 18.7071 19.2071C18.3166 19.5977 17.6834 19.5977 17.2929 19.2071L12 13.9142L6.70712 19.2071C6.3166 19.5977 5.68343 19.5977 5.29291 19.2071C4.90238 18.8166 4.90238 18.1835 5.29291 17.7929L10.5858 12.5L5.29289 7.20713C4.90237 6.8166 4.90237 6.18344 5.29289 5.79291Z" fill="#474747"/>
</svg>
