<svg width="2235" height="1867" viewBox="0 0 2235 1867" fill="none" xmlns="http://www.w3.org/2000/svg">
<path fill-rule="evenodd" clip-rule="evenodd" d="M808.596 1764.67C610.05 1708.25 276.351 1831.58 144.495 1672.74C-18.4803 1476.42 -31.0187 661.238 44.987 417.565C122.482 169.119 283 -55.7876 574.5 19.002C974 121.501 1081.74 248.493 1428 80.5001C1815.5 -107.5 1954.45 65.2973 2137.5 285.488C2322.14 507.601 2211.99 1489.71 2060.49 1735.75C1928.5 1950.1 1576.33 1809.24 1329.35 1857.49C1149.43 1892.64 984.913 1814.77 808.596 1764.67Z" fill="#00C0C0" fill-opacity="0.2"/>
<path fill-rule="evenodd" clip-rule="evenodd" d="M808.596 1764.67C610.05 1708.25 276.351 1831.58 144.495 1672.74C-18.4803 1476.42 -31.0187 661.238 44.987 417.565C122.482 169.119 283 -55.7876 574.5 19.002C974 121.501 1081.74 248.493 1428 80.5001C1815.5 -107.5 1954.45 65.2973 2137.5 285.488C2322.14 507.601 2211.99 1489.71 2060.49 1735.75C1928.5 1950.1 1576.33 1809.24 1329.35 1857.49C1149.43 1892.64 984.913 1814.77 808.596 1764.67Z" fill="url(#paint0_linear_492_1041)" fill-opacity="0.6"/>
<defs>
<linearGradient id="paint0_linear_492_1041" x1="899.997" y1="-68.5096" x2="1249.25" y2="671.955" gradientUnits="userSpaceOnUse">
<stop stop-color="#00C0C0"/>
<stop offset="1" stop-color="#00C0C0" stop-opacity="0"/>
</linearGradient>
</defs>
</svg>
