<svg width="2511" height="2439" viewBox="0 0 2511 2439" fill="none" xmlns="http://www.w3.org/2000/svg">
<path fill-rule="evenodd" clip-rule="evenodd" d="M2137.19 916.034C2251 1053.77 2492.82 1117.89 2508.94 1295.84C2523.33 1454.69 2408.89 1484.32 2319.73 1616.57C2240.2 1734.52 2322.53 1875.06 2204.57 1954.57C2082.97 2036.53 1957.79 1983.8 1835.73 2065.07C1647.23 2190.57 1727.74 2293.08 1470.2 2397.05C1211.27 2501.6 1012.36 2382.43 803.726 2326.56C538.363 2255.52 557.679 2489.55 176.677 2284.05C44.0345 2212.5 187.462 1524.25 125.177 1387.02C63.9217 1252.06 120.693 1176.24 74.1743 1035.52C21.1266 875.047 -14.1964 901.907 9.17658 734.518C32.7215 565.898 -57.1941 425.821 74.1744 317.518C207.044 207.978 96.1784 0.517649 581.678 0.51765C1067.18 0.517652 1137.67 281.881 1364.17 288.018C1526.72 292.423 1686.58 136.315 1820.17 229.019C1956.98 323.956 1906.92 470.402 1957.84 628.947C1992.64 737.298 2064.69 828.308 2137.19 916.034Z" fill="#00C0C0" fill-opacity="0.2"/>
<path fill-rule="evenodd" clip-rule="evenodd" d="M2137.19 916.034C2251 1053.77 2492.82 1117.89 2508.94 1295.84C2523.33 1454.69 2408.89 1484.32 2319.73 1616.57C2240.2 1734.52 2322.53 1875.06 2204.57 1954.57C2082.97 2036.53 1957.79 1983.8 1835.73 2065.07C1647.23 2190.57 1727.74 2293.08 1470.2 2397.05C1211.27 2501.6 1012.36 2382.43 803.726 2326.56C538.363 2255.52 557.679 2489.55 176.677 2284.05C44.0345 2212.5 187.462 1524.25 125.177 1387.02C63.9217 1252.06 120.693 1176.24 74.1743 1035.52C21.1266 875.047 -14.1964 901.907 9.17658 734.518C32.7215 565.898 -57.1941 425.821 74.1744 317.518C207.044 207.978 96.1784 0.517649 581.678 0.51765C1067.18 0.517652 1137.67 281.881 1364.17 288.018C1526.72 292.423 1686.58 136.315 1820.17 229.019C1956.98 323.956 1906.92 470.402 1957.84 628.947C1992.64 737.298 2064.69 828.308 2137.19 916.034Z" fill="url(#paint0_linear_806_739)" fill-opacity="0.6"/>
<defs>
<linearGradient id="paint0_linear_806_739" x1="366.24" y1="68.0757" x2="1054.24" y2="1101.58" gradientUnits="userSpaceOnUse">
<stop stop-color="#00C0C0"/>
<stop offset="1" stop-color="#00C0C0" stop-opacity="0"/>
</linearGradient>
</defs>
</svg>
