<svg width="2570" height="1147" viewBox="0 0 2570 1147" fill="none" xmlns="http://www.w3.org/2000/svg">
<path fill-rule="evenodd" clip-rule="evenodd" d="M2454.76 276.608C2515.19 377.498 2512.09 527.448 2558.26 635.608C2616.13 771.178 2430.2 546.837 2425.17 694.157C2420.35 835.497 2426.8 981.427 2299.76 1043.56C2148.86 1117.36 1905.26 1043.56 1745.76 1043.56C1601.16 1043.56 1422.57 1054.14 1226.26 1110.11C1010.76 1171.56 788.757 1149.81 609.001 1082.4C384.257 998.117 414.191 957.468 322.663 884.578C240.533 819.178 180.952 1100.18 123.795 1012.11C68.3624 926.698 93.4234 802.938 28.2454 724.708C-77.5576 597.718 149.85 963.558 123.795 800.338C100.882 656.808 336.272 614.808 397.249 482.868C456.398 354.898 119.256 42.1085 227.256 31.1085C363.521 17.2295 785.773 -27.2065 1081.26 24.1085C1343.26 69.6085 1379.76 95.6085 1847.28 119.623C2171.33 136.268 2394.92 176.718 2454.76 276.608Z" fill="#C4C4C4"/>
</svg>
