<svg width="3180" height="3358" viewBox="0 0 3180 3358" fill="none" xmlns="http://www.w3.org/2000/svg">
<path fill-rule="evenodd" clip-rule="evenodd" d="M1656.85 374.12C1895.12 379.684 2038.53 42.382 2276.53 29.8815C2493.59 18.4807 2722.97 141.266 2858.72 310.994C2997.49 484.49 2956.4 738.733 3014.88 953.046C3064.42 1134.63 3178.77 1299.82 3179.88 1488.03C3180.98 1673.77 3071.38 1838.41 3021.17 2017.24C2970.82 2196.59 2995.05 2406.09 2880.82 2553.25C2766.48 2700.54 2525.3 2688.3 2395.97 2822.62C2219.58 3005.81 2557.89 3275.5 2000.56 3354.43C1749.11 3390.04 1508 3116.91 1349 2972C1190 2827.09 932 2769 576.5 2769C187.405 2769 61.4231 2749.03 6.87655 2515.47C-63.7425 2213.09 432.066 2276.88 465.166 1968.13C484.02 1792.28 251.861 1672.66 230.996 1497.03C209.87 1319.2 289.327 1146.64 347.448 977.247C410.003 794.933 477.948 615.094 587.923 456.789C709.207 282.204 813.898 17.0719 1025.87 0.678406C1271.65 -18.3297 1410.41 368.366 1656.85 374.12Z" fill="#C4C4C4"/>
</svg>
