<svg width="2912" height="3599" viewBox="0 0 2912 3599" fill="none" xmlns="http://www.w3.org/2000/svg">
<path fill-rule="evenodd" clip-rule="evenodd" d="M2194.5 3570.51C1697.13 3595.54 894.501 3646.01 509.085 3491.38C-11.8581 3282.38 474.461 2309.75 392.303 1724.39C319.49 1205.62 -170.609 664.377 63.7438 248.423C298.407 -168.082 870.575 105.754 1296.5 52.5029C1681.54 4.36369 2312.16 -97.2925 2598.5 248.418C2897.29 609.146 2444.56 836.814 2534.74 1323.58C2624.46 1807.85 2974.99 2167.5 2901.19 2641.27C2817.64 3177.59 2641.49 3548.01 2194.5 3570.51Z" fill="#00C0C0" fill-opacity="0.2"/>
<path fill-rule="evenodd" clip-rule="evenodd" d="M2194.5 3570.51C1697.13 3595.54 894.501 3646.01 509.085 3491.38C-11.8581 3282.38 474.461 2309.75 392.303 1724.39C319.49 1205.62 -170.609 664.377 63.7438 248.423C298.407 -168.082 870.575 105.754 1296.5 52.5029C1681.54 4.36369 2312.16 -97.2925 2598.5 248.418C2897.29 609.146 2444.56 836.814 2534.74 1323.58C2624.46 1807.85 2974.99 2167.5 2901.19 2641.27C2817.64 3177.59 2641.49 3548.01 2194.5 3570.51Z" fill="url(#paint0_linear_461_496)" fill-opacity="0.6"/>
<defs>
<linearGradient id="paint0_linear_461_496" x1="528.321" y1="-124.001" x2="1522.76" y2="1667.05" gradientUnits="userSpaceOnUse">
<stop stop-color="#00C0C0"/>
<stop offset="1" stop-color="#00C0C0" stop-opacity="0"/>
</linearGradient>
</defs>
</svg>
