<svg width="1920" height="1181" viewBox="0 0 1920 1181" fill="none" xmlns="http://www.w3.org/2000/svg">
<path d="M1153.19 1121.51C1387.23 1173.06 1608.35 1131.48 1933 1089.38V19.5916C1249.21 -63.8289 993.162 152.417 677.112 52.3029C361.062 -47.811 233.919 72.451 -2.99997 112.371L-3 1156.28C87.159 1152.09 181.283 1149.82 318.755 1173.06C603.422 1221.19 742.339 1031.03 1153.19 1121.51Z" fill="#00C0C0" fill-opacity="0.2"/>
<path d="M1153.19 1121.51C1387.23 1173.06 1608.35 1131.48 1933 1089.38V19.5916C1249.21 -63.8289 993.162 152.417 677.112 52.3029C361.062 -47.811 233.919 72.451 -2.99997 112.371L-3 1156.28C87.159 1152.09 181.283 1149.82 318.755 1173.06C603.422 1221.19 742.339 1031.03 1153.19 1121.51Z" fill="url(#paint0_linear_918_1426)" fill-opacity="0.6"/>
<defs>
<linearGradient id="paint0_linear_918_1426" x1="31.7893" y1="817.662" x2="789.789" y2="406.622" gradientUnits="userSpaceOnUse">
<stop stop-color="#00C0C0"/>
<stop offset="1" stop-color="#00C0C0" stop-opacity="0"/>
</linearGradient>
</defs>
</svg>
