<svg width="1920" height="1508" viewBox="0 0 1920 1508" fill="none" xmlns="http://www.w3.org/2000/svg">
<path fill-rule="evenodd" clip-rule="evenodd" d="M673.818 1425.86C475.195 1380.27 141.365 1479.93 9.45789 1351.57C-153.581 1192.92 -166.125 534.155 -90.089 337.238C-12.5641 136.464 148.017 -45.2878 439.631 15.1513C839.287 97.9828 947.066 200.607 1293.46 64.8491C1681.11 -87.0775 1820.12 52.5635 2003.24 230.504C2187.95 409.997 2077.76 1203.66 1926.2 1402.49C1794.16 1575.71 1441.85 1461.88 1194.78 1500.87C1014.79 1529.27 850.204 1466.34 673.818 1425.86Z" fill="#00C0C0" fill-opacity="0.2"/>
<path fill-rule="evenodd" clip-rule="evenodd" d="M673.818 1425.86C475.195 1380.27 141.365 1479.93 9.45789 1351.57C-153.581 1192.92 -166.125 534.155 -90.089 337.238C-12.5641 136.464 148.017 -45.2878 439.631 15.1513C839.287 97.9828 947.066 200.607 1293.46 64.8491C1681.11 -87.0775 1820.12 52.5635 2003.24 230.504C2187.95 409.997 2077.76 1203.66 1926.2 1402.49C1794.16 1575.71 1441.85 1461.88 1194.78 1500.87C1014.79 1529.27 850.204 1466.34 673.818 1425.86Z" fill="url(#paint0_linear_918_1492)" fill-opacity="0.6"/>
<defs>
<linearGradient id="paint0_linear_918_1492" x1="765.255" y1="-55.5688" x2="1008.64" y2="583.205" gradientUnits="userSpaceOnUse">
<stop stop-color="#00C0C0"/>
<stop offset="1" stop-color="#00C0C0" stop-opacity="0"/>
</linearGradient>
</defs>
</svg>
