<svg width="32" height="32" viewBox="0 0 32 32" fill="none" xmlns="http://www.w3.org/2000/svg">
<path d="M27.4944 7.00146H26.0056C26.0041 7.00146 26.0027 7.00206 26.0016 7.00311C26.0006 7.00417 26 7.0056 26 7.00709V26.0015C26 26.5319 26.2107 27.0406 26.5858 27.4157C26.9609 27.7907 27.4696 28.0015 28 28.0015C28.5304 28.0015 29.0391 27.7907 29.4142 27.4157C29.7893 27.0406 30 26.5319 30 26.0015V9.50709C30 8.84256 29.736 8.20524 29.2661 7.73535C28.7962 7.26545 28.1589 7.00146 27.4944 7.00146Z" fill="#00C0C0" fill-opacity="0.2"/>
<path d="M27.4944 7.00146H26.0056C26.0041 7.00146 26.0027 7.00206 26.0016 7.00311C26.0006 7.00417 26 7.0056 26 7.00709V26.0015C26 26.5319 26.2107 27.0406 26.5858 27.4157C26.9609 27.7907 27.4696 28.0015 28 28.0015C28.5304 28.0015 29.0391 27.7907 29.4142 27.4157C29.7893 27.0406 30 26.5319 30 26.0015V9.50709C30 8.84256 29.736 8.20524 29.2661 7.73535C28.7962 7.26545 28.1589 7.00146 27.4944 7.00146Z" fill="url(#paint0_linear_913_1573)" fill-opacity="0.6"/>
<path d="M24 26.001V4.50098C24 4.17267 23.9353 3.84758 23.8097 3.54427C23.6841 3.24095 23.4999 2.96536 23.2678 2.73321C23.0356 2.50106 22.76 2.31691 22.4567 2.19128C22.1534 2.06564 21.8283 2.00098 21.5 2.00098H4.5C3.83696 2.00098 3.20107 2.26437 2.73223 2.73321C2.26339 3.20205 2 3.83793 2 4.50098V26.501C2 27.4292 2.36875 28.3195 3.02513 28.9758C3.6815 29.6322 4.57174 30.001 5.5 30.001H26.9281C26.9376 30.001 26.947 29.9992 26.9557 29.9957C26.9645 29.9921 26.9724 29.9868 26.9791 29.9801C26.9858 29.9734 26.9911 29.9655 26.9947 29.9567C26.9983 29.9479 27.0001 29.9386 27 29.9291C27 29.9134 26.9947 29.8981 26.9851 29.8857C26.9755 29.8732 26.9621 29.8643 26.9469 29.8603C26.101 29.6283 25.3546 29.1251 24.8222 28.4279C24.2899 27.7307 24.001 26.8781 24 26.001ZM6 8.00097C6 7.73576 6.10536 7.4814 6.29289 7.29387C6.48043 7.10633 6.73478 7.00097 7 7.00097H11C11.2652 7.00097 11.5196 7.10633 11.7071 7.29387C11.8946 7.4814 12 7.73576 12 8.00097V12.001C12 12.2662 11.8946 12.5205 11.7071 12.7081C11.5196 12.8956 11.2652 13.001 11 13.001H7C6.73478 13.001 6.48043 12.8956 6.29289 12.7081C6.10536 12.5205 6 12.2662 6 12.001V8.00097ZM19 25.001H7.02812C6.49 25.001 6.02812 24.5872 6.00125 24.0491C5.99473 23.9139 6.01574 23.7788 6.06299 23.6519C6.11024 23.5251 6.18276 23.4091 6.27614 23.3111C6.36952 23.2131 6.48183 23.1351 6.60625 23.0818C6.73068 23.0285 6.86463 23.001 7 23.001H18.9719C19.51 23.001 19.9719 23.4147 19.9987 23.9528C20.0053 24.0881 19.9843 24.2232 19.937 24.35C19.8898 24.4769 19.8172 24.5928 19.7239 24.6908C19.6305 24.7888 19.5182 24.8668 19.3937 24.9201C19.2693 24.9735 19.1354 25.001 19 25.001ZM19 21.001H7.02812C6.49 21.001 6.02812 20.5872 6.00125 20.0491C5.99473 19.9139 6.01574 19.7788 6.06299 19.6519C6.11024 19.5251 6.18276 19.4091 6.27614 19.3111C6.36952 19.2131 6.48183 19.1351 6.60625 19.0818C6.73068 19.0285 6.86463 19.001 7 19.001H18.9719C19.51 19.001 19.9719 19.4147 19.9987 19.9528C20.0053 20.0881 19.9843 20.2232 19.937 20.35C19.8898 20.4769 19.8172 20.5928 19.7239 20.6908C19.6305 20.7888 19.5182 20.8668 19.3937 20.9201C19.2693 20.9735 19.1354 21.001 19 21.001ZM19 17.001H7.02812C6.49 17.001 6.02812 16.5872 6.00125 16.0491C5.99473 15.9139 6.01574 15.7788 6.06299 15.6519C6.11024 15.5251 6.18276 15.4091 6.27614 15.3111C6.36952 15.2131 6.48183 15.1351 6.60625 15.0818C6.73068 15.0285 6.86463 15.001 7 15.001H18.9719C19.51 15.001 19.9719 15.4147 19.9987 15.9528C20.0053 16.0881 19.9843 16.2232 19.937 16.35C19.8898 16.4769 19.8172 16.5928 19.7239 16.6908C19.6305 16.7888 19.5182 16.8668 19.3937 16.9202C19.2693 16.9735 19.1354 17.001 19 17.001ZM19 13.001H15.0281C14.49 13.001 14.0281 12.5872 14.0012 12.0491C13.9947 11.9139 14.0157 11.7788 14.063 11.6519C14.1102 11.5251 14.1828 11.4091 14.2761 11.3111C14.3695 11.2131 14.4818 11.1351 14.6063 11.0818C14.7307 11.0285 14.8646 11.001 15 11.001H18.9719C19.51 11.001 19.9719 11.4147 19.9987 11.9528C20.0053 12.0881 19.9843 12.2232 19.937 12.35C19.8898 12.4769 19.8172 12.5928 19.7239 12.6908C19.6305 12.7888 19.5182 12.8668 19.3937 12.9202C19.2693 12.9735 19.1354 13.001 19 13.001ZM19 9.00097H15.0281C14.49 9.00097 14.0281 8.58722 14.0012 8.0491C13.9947 7.91389 14.0157 7.77877 14.063 7.65191C14.1102 7.52506 14.1828 7.40912 14.2761 7.31113C14.3695 7.21313 14.4818 7.13511 14.6063 7.08179C14.7307 7.02848 14.8646 7.00099 15 7.00097H18.9719C19.51 7.00097 19.9719 7.41472 19.9987 7.95285C20.0053 8.08806 19.9843 8.22318 19.937 8.35004C19.8898 8.47689 19.8172 8.59282 19.7239 8.69082C19.6305 8.78882 19.5182 8.86684 19.3937 8.92015C19.2693 8.97347 19.1354 9.00096 19 9.00097Z" fill="#00C0C0" fill-opacity="0.2"/>
<path d="M24 26.001V4.50098C24 4.17267 23.9353 3.84758 23.8097 3.54427C23.6841 3.24095 23.4999 2.96536 23.2678 2.73321C23.0356 2.50106 22.76 2.31691 22.4567 2.19128C22.1534 2.06564 21.8283 2.00098 21.5 2.00098H4.5C3.83696 2.00098 3.20107 2.26437 2.73223 2.73321C2.26339 3.20205 2 3.83793 2 4.50098V26.501C2 27.4292 2.36875 28.3195 3.02513 28.9758C3.6815 29.6322 4.57174 30.001 5.5 30.001H26.9281C26.9376 30.001 26.947 29.9992 26.9557 29.9957C26.9645 29.9921 26.9724 29.9868 26.9791 29.9801C26.9858 29.9734 26.9911 29.9655 26.9947 29.9567C26.9983 29.9479 27.0001 29.9386 27 29.9291C27 29.9134 26.9947 29.8981 26.9851 29.8857C26.9755 29.8732 26.9621 29.8643 26.9469 29.8603C26.101 29.6283 25.3546 29.1251 24.8222 28.4279C24.2899 27.7307 24.001 26.8781 24 26.001ZM6 8.00097C6 7.73576 6.10536 7.4814 6.29289 7.29387C6.48043 7.10633 6.73478 7.00097 7 7.00097H11C11.2652 7.00097 11.5196 7.10633 11.7071 7.29387C11.8946 7.4814 12 7.73576 12 8.00097V12.001C12 12.2662 11.8946 12.5205 11.7071 12.7081C11.5196 12.8956 11.2652 13.001 11 13.001H7C6.73478 13.001 6.48043 12.8956 6.29289 12.7081C6.10536 12.5205 6 12.2662 6 12.001V8.00097ZM19 25.001H7.02812C6.49 25.001 6.02812 24.5872 6.00125 24.0491C5.99473 23.9139 6.01574 23.7788 6.06299 23.6519C6.11024 23.5251 6.18276 23.4091 6.27614 23.3111C6.36952 23.2131 6.48183 23.1351 6.60625 23.0818C6.73068 23.0285 6.86463 23.001 7 23.001H18.9719C19.51 23.001 19.9719 23.4147 19.9987 23.9528C20.0053 24.0881 19.9843 24.2232 19.937 24.35C19.8898 24.4769 19.8172 24.5928 19.7239 24.6908C19.6305 24.7888 19.5182 24.8668 19.3937 24.9201C19.2693 24.9735 19.1354 25.001 19 25.001ZM19 21.001H7.02812C6.49 21.001 6.02812 20.5872 6.00125 20.0491C5.99473 19.9139 6.01574 19.7788 6.06299 19.6519C6.11024 19.5251 6.18276 19.4091 6.27614 19.3111C6.36952 19.2131 6.48183 19.1351 6.60625 19.0818C6.73068 19.0285 6.86463 19.001 7 19.001H18.9719C19.51 19.001 19.9719 19.4147 19.9987 19.9528C20.0053 20.0881 19.9843 20.2232 19.937 20.35C19.8898 20.4769 19.8172 20.5928 19.7239 20.6908C19.6305 20.7888 19.5182 20.8668 19.3937 20.9201C19.2693 20.9735 19.1354 21.001 19 21.001ZM19 17.001H7.02812C6.49 17.001 6.02812 16.5872 6.00125 16.0491C5.99473 15.9139 6.01574 15.7788 6.06299 15.6519C6.11024 15.5251 6.18276 15.4091 6.27614 15.3111C6.36952 15.2131 6.48183 15.1351 6.60625 15.0818C6.73068 15.0285 6.86463 15.001 7 15.001H18.9719C19.51 15.001 19.9719 15.4147 19.9987 15.9528C20.0053 16.0881 19.9843 16.2232 19.937 16.35C19.8898 16.4769 19.8172 16.5928 19.7239 16.6908C19.6305 16.7888 19.5182 16.8668 19.3937 16.9202C19.2693 16.9735 19.1354 17.001 19 17.001ZM19 13.001H15.0281C14.49 13.001 14.0281 12.5872 14.0012 12.0491C13.9947 11.9139 14.0157 11.7788 14.063 11.6519C14.1102 11.5251 14.1828 11.4091 14.2761 11.3111C14.3695 11.2131 14.4818 11.1351 14.6063 11.0818C14.7307 11.0285 14.8646 11.001 15 11.001H18.9719C19.51 11.001 19.9719 11.4147 19.9987 11.9528C20.0053 12.0881 19.9843 12.2232 19.937 12.35C19.8898 12.4769 19.8172 12.5928 19.7239 12.6908C19.6305 12.7888 19.5182 12.8668 19.3937 12.9202C19.2693 12.9735 19.1354 13.001 19 13.001ZM19 9.00097H15.0281C14.49 9.00097 14.0281 8.58722 14.0012 8.0491C13.9947 7.91389 14.0157 7.77877 14.063 7.65191C14.1102 7.52506 14.1828 7.40912 14.2761 7.31113C14.3695 7.21313 14.4818 7.13511 14.6063 7.08179C14.7307 7.02848 14.8646 7.00099 15 7.00097H18.9719C19.51 7.00097 19.9719 7.41472 19.9987 7.95285C20.0053 8.08806 19.9843 8.22318 19.937 8.35004C19.8898 8.47689 19.8172 8.59282 19.7239 8.69082C19.6305 8.78882 19.5182 8.86684 19.3937 8.92015C19.2693 8.97347 19.1354 9.00096 19 9.00097Z" fill="url(#paint1_linear_913_1573)" fill-opacity="0.6"/>
<defs>
<linearGradient id="paint0_linear_913_1573" x1="26.0719" y1="21.5407" x2="28.0905" y2="21.4136" gradientUnits="userSpaceOnUse">
<stop stop-color="#00C0C0"/>
<stop offset="1" stop-color="#00C0C0" stop-opacity="0"/>
</linearGradient>
<linearGradient id="paint1_linear_913_1573" x1="2.44924" y1="21.3867" x2="14.0995" y2="17.9458" gradientUnits="userSpaceOnUse">
<stop stop-color="#00C0C0"/>
<stop offset="1" stop-color="#00C0C0" stop-opacity="0"/>
</linearGradient>
</defs>
</svg>
