<svg width="32" height="32" viewBox="0 0 32 32" fill="none" xmlns="http://www.w3.org/2000/svg">
<path fill-rule="evenodd" clip-rule="evenodd" d="M16 31C16 31 28 22.8182 28 13.2727C28 10.0178 26.7357 6.89618 24.4853 4.5946C22.2348 2.29302 19.1826 1 16 1C12.8174 1 9.76516 2.29302 7.51472 4.5946C5.26428 6.89618 4 10.0178 4 13.2727C4 22.8182 16 31 16 31ZM16 17.7647C18.3669 17.7647 20.2857 15.7895 20.2857 13.3529C20.2857 10.9164 18.3669 8.94118 16 8.94118C13.6331 8.94118 11.7143 10.9164 11.7143 13.3529C11.7143 15.7895 13.6331 17.7647 16 17.7647Z" fill="#00C0C0" fill-opacity="0.2"/>
<path fill-rule="evenodd" clip-rule="evenodd" d="M16 31C16 31 28 22.8182 28 13.2727C28 10.0178 26.7357 6.89618 24.4853 4.5946C22.2348 2.29302 19.1826 1 16 1C12.8174 1 9.76516 2.29302 7.51472 4.5946C5.26428 6.89618 4 10.0178 4 13.2727C4 22.8182 16 31 16 31ZM16 17.7647C18.3669 17.7647 20.2857 15.7895 20.2857 13.3529C20.2857 10.9164 18.3669 8.94118 16 8.94118C13.6331 8.94118 11.7143 10.9164 11.7143 13.3529C11.7143 15.7895 13.6331 17.7647 16 17.7647Z" fill="url(#paint0_linear_918_1504)" fill-opacity="0.6"/>
<defs>
<linearGradient id="paint0_linear_918_1504" x1="4.43127" y1="21.7704" x2="15.7953" y2="18.7631" gradientUnits="userSpaceOnUse">
<stop stop-color="#00C0C0"/>
<stop offset="1" stop-color="#00C0C0" stop-opacity="0"/>
</linearGradient>
</defs>
</svg>
