<?xml version="1.0" encoding="utf-8"?><svg xmlns="http://www.w3.org/2000/svg" xmlns:xlink="http://www.w3.org/1999/xlink"><symbol viewBox="0 0 24 24" id="close" xmlns="http://www.w3.org/2000/svg"><path fill-rule="evenodd" clip-rule="evenodd" d="M5.293 5.293a1 1 0 011.414 0L12 10.586l5.293-5.293a1 1 0 111.414 1.414L13.414 12l5.293 5.293a1 1 0 01-1.414 1.414L12 13.414l-5.293 5.293a1 1 0 11-1.414-1.414L10.586 12 5.293 6.707a1 1 0 010-1.414z"/></symbol><symbol viewBox="0 0 24 10" id="link-arrow" xmlns="http://www.w3.org/2000/svg"><path d="M0 5h22.5m0 0l-4-4m4 4l-4 4"/></symbol><symbol viewBox="0 0 28 28" id="mobile" xmlns="http://www.w3.org/2000/svg"><rect x="6" y="2" width="16" height="24" rx="3" stroke-width="2"/><rect x="12" y="2" width="4" height="2" rx="1" stroke-width="2"/></symbol><symbol viewBox="0 0 40 41" id="service-info" xmlns="http://www.w3.org/2000/svg"><circle cx="20" cy="20.5" r="20"/><circle cx="20" cy="20" r="7"/></symbol><symbol viewBox="0 0 18 32" id="slider-left" xmlns="http://www.w3.org/2000/svg"><path d="M1.303 14.624L14.548.644C15.791-.67 18 .21 18 2.019v27.962c0 1.808-2.209 2.688-3.452 1.375L1.303 17.376a2 2 0 010-2.752z"/></symbol><symbol viewBox="0 0 18 32" id="slider-right" xmlns="http://www.w3.org/2000/svg"><path d="M16.697 14.624L3.452.644C2.208-.67 0 .21 0 2.019v27.962c0 1.808 2.208 2.688 3.452 1.375l13.245-13.98a2 2 0 000-2.752z"/></symbol><symbol viewBox="0 0 40 40" id="video-play" xmlns="http://www.w3.org/2000/svg"><path d="M35.686 17L15.632 4.002C13.636 2.708 11 4.141 11 6.519v25.997c0 2.378 2.636 3.811 4.632 2.517l20.054-12.998c1.824-1.182 1.824-3.852 0-5.035z"/></symbol></svg>