<svg width="135" height="16" viewBox="0 0 135 16" fill="none" xmlns="http://www.w3.org/2000/svg">
<path d="M6.14162 9.48282L4.95688 6.07595L3.76532 9.48282H6.14162ZM6.83613 11.4069H3.07081L2.23332 13.8517H0L3.84022 3.4792H6.06673L9.90695 13.8517H7.67363L6.83613 11.4069Z" fill="#1A1A1A"/>
<path d="M23.1571 3.4792V13.8517H21.0667V9.62749H13.3999V13.8517H11.3028V3.4792H13.3999V7.6311H21.0667V3.4792H23.1571Z" fill="#1A1A1A"/>
<path d="M24.4167 11.8553H24.975C25.0113 11.8168 25.0635 11.7565 25.1316 11.6745C25.2043 11.5877 25.3291 11.3948 25.5061 11.0958C25.6832 10.792 25.8375 10.4593 25.9691 10.0976C26.1053 9.73598 26.2279 9.24653 26.3368 8.62929C26.4503 8.01206 26.507 7.35865 26.507 6.66908V3.4792H33.2683V11.8553H34.4598V16H32.3627V13.8517H26.507V16H24.4167V11.8553ZM28.5974 6.66908C28.5974 7.35865 28.5429 8.00964 28.434 8.62206C28.3296 9.23448 28.2025 9.72875 28.0527 10.1049C27.9074 10.481 27.7599 10.8065 27.6101 11.0814C27.4603 11.3562 27.3355 11.5539 27.2356 11.6745L27.0654 11.8553H31.1779V5.48282H28.5974V6.66908Z" fill="#1A1A1A"/>
<path d="M36.0599 3.4792H40.1725C41.1757 3.4792 42.0064 3.81435 42.6645 4.48463C43.3273 5.15009 43.6586 5.97709 43.6586 6.96564C43.6586 7.94937 43.3296 8.77637 42.6714 9.44665C42.0132 10.1121 41.1802 10.4448 40.1725 10.4448H38.1571V13.8517H36.0599V3.4792ZM40.1044 5.48282H38.1571V8.44123H40.1044C40.522 8.44123 40.8693 8.29897 41.1462 8.01447C41.4276 7.72996 41.5683 7.38035 41.5683 6.96564C41.5683 6.55093 41.4276 6.20133 41.1462 5.91682C40.8693 5.62749 40.522 5.48282 40.1044 5.48282Z" fill="#1A1A1A"/>
<path d="M47.635 11.8553H56.3504V13.8517H45.5379V3.4792H56.2074V5.48282H47.635V7.55877H55.0908V9.55515H47.635V11.8553Z" fill="#1A1A1A"/>
<path d="M62.0222 0.636528C62.1811 0.805304 62.3808 0.889693 62.6214 0.889693C62.862 0.889693 63.0617 0.805304 63.2206 0.636528C63.3795 0.467752 63.4589 0.255576 63.4589 0H64.8547C64.8547 0.670283 64.6482 1.22242 64.2351 1.65642C63.8221 2.08559 63.2842 2.30018 62.6214 2.30018C61.9632 2.30018 61.4276 2.08559 61.0145 1.65642C60.6015 1.22242 60.3949 0.670283 60.3949 0H61.7839C61.7839 0.255576 61.8634 0.467752 62.0222 0.636528ZM67.0132 13.8517H64.9228V7.26221L60.1158 13.8517H58.2978V3.4792H60.3949V10.0759L65.202 3.4792H67.0132V13.8517Z" fill="#1A1A1A"/>
<path d="M73.9855 11.8553H74.5438C74.5801 11.8168 74.6323 11.7565 74.7004 11.6745C74.773 11.5877 74.8979 11.3948 75.0749 11.0958C75.2519 10.792 75.4063 10.4593 75.5379 10.0976C75.6741 9.73598 75.7966 9.24653 75.9056 8.62929C76.0191 8.01206 76.0758 7.35865 76.0758 6.66908V3.4792H82.837V11.8553H84.0286V16H81.9315V13.8517H76.0758V16H73.9855V11.8553ZM78.1661 6.66908C78.1661 7.35865 78.1117 8.00964 78.0027 8.62206C77.8983 9.23448 77.7712 9.72875 77.6214 10.1049C77.4762 10.481 77.3286 10.8065 77.1788 11.0814C77.0291 11.3562 76.9042 11.5539 76.8044 11.6745L76.6341 11.8553H80.7467V5.48282H78.1661V6.66908Z" fill="#1A1A1A"/>
<path d="M96.2982 3.4792V13.8517H94.2079V3.4792H96.2982ZM89.6051 13.8517H85.6287V3.4792H87.7258V6.88608H89.6051C90.6083 6.88608 91.4389 7.22122 92.0971 7.8915C92.7599 8.55696 93.0912 9.38397 93.0912 10.3725C93.0912 11.3611 92.7599 12.1881 92.0971 12.8535C91.4389 13.519 90.6083 13.8517 89.6051 13.8517ZM87.7258 11.8553H89.537C89.9546 11.8553 90.3019 11.7131 90.5788 11.4286C90.8602 11.1392 91.0009 10.7872 91.0009 10.3725C91.0009 9.95781 90.8602 9.6082 90.5788 9.32369C90.3019 9.03436 89.9546 8.88969 89.537 8.88969H87.7258V11.8553Z" fill="#1A1A1A"/>
<path d="M100.908 11.8553H106.484C106.857 11.8553 107.17 11.73 107.424 11.4792C107.678 11.2236 107.805 10.9295 107.805 10.5967C107.805 10.2592 107.678 9.96504 107.424 9.71428C107.17 9.45871 106.857 9.33092 106.484 9.33092H100.908V11.8553ZM106.552 13.8517H98.8107V3.4792H109.065V5.48282H100.908V7.33454H106.552C107.51 7.33454 108.307 7.6528 108.942 8.28933C109.578 8.92586 109.896 9.695 109.896 10.5967C109.896 11.4937 109.578 12.2604 108.942 12.8969C108.307 13.5335 107.51 13.8517 106.552 13.8517Z" fill="#1A1A1A"/>
<path d="M114.294 6.24955C113.686 6.90536 113.382 7.71308 113.382 8.67269C113.382 9.62749 113.686 10.4328 114.294 11.0886C114.902 11.7444 115.642 12.0723 116.514 12.0723C117.39 12.0723 118.132 11.7444 118.74 11.0886C119.349 10.4328 119.653 9.62749 119.653 8.67269C119.653 7.71308 119.349 6.90536 118.74 6.24955C118.132 5.58891 117.39 5.25859 116.514 5.25859C115.642 5.25859 114.902 5.58891 114.294 6.24955ZM112.749 12.4919C111.727 11.431 111.217 10.1555 111.217 8.66546C111.217 7.17541 111.727 5.90235 112.749 4.84629C113.774 3.79024 115.03 3.26221 116.514 3.26221C118.003 3.26221 119.258 3.79024 120.279 4.84629C121.305 5.90235 121.818 7.17541 121.818 8.66546C121.818 10.1555 121.305 11.431 120.279 12.4919C119.258 13.5479 118.003 14.0759 116.514 14.0759C115.03 14.0759 113.774 13.5479 112.749 12.4919Z" fill="#1A1A1A"/>
<path d="M131.684 13.8517H123.772V3.4792H131.446C132.331 3.4792 133.062 3.75407 133.638 4.3038C134.219 4.85353 134.51 5.49247 134.51 6.22061C134.51 6.49548 134.473 6.75829 134.401 7.00904C134.328 7.25497 134.235 7.45992 134.122 7.62387C134.008 7.78782 133.895 7.93008 133.781 8.05063C133.672 8.16636 133.581 8.24834 133.509 8.29656L133.393 8.3689C133.438 8.38819 133.495 8.41712 133.563 8.4557C133.636 8.48945 133.765 8.57866 133.951 8.72333C134.138 8.86317 134.301 9.01748 134.442 9.18626C134.582 9.35503 134.709 9.5865 134.823 9.88065C134.941 10.17 135 10.481 135 10.8137C135 11.6432 134.689 12.3568 134.067 12.9548C133.445 13.5527 132.651 13.8517 131.684 13.8517ZM125.869 12H131.582C131.963 12 132.279 11.8722 132.528 11.6166C132.783 11.3611 132.91 11.0452 132.91 10.6691C132.91 10.2929 132.783 9.97709 132.528 9.72152C132.279 9.46112 131.963 9.33092 131.582 9.33092H125.869V12ZM131.303 5.33092H125.869V7.55877H131.303C131.648 7.55877 131.92 7.4575 132.12 7.25497C132.32 7.05244 132.419 6.7824 132.419 6.44485C132.419 6.10729 132.32 5.83725 132.12 5.63472C131.92 5.43219 131.648 5.33092 131.303 5.33092Z" fill="#1A1A1A"/>
</svg>
