<svg width="229" height="26" viewBox="0 0 229 26" fill="none" xmlns="http://www.w3.org/2000/svg">
<path d="M10.418 15.4096L8.40833 9.87342L6.3871 15.4096H10.418ZM11.5961 18.5362H5.20901L3.78837 22.509H0L6.51415 5.65371H10.291L16.8051 22.509H13.0167L11.5961 18.5362Z" fill="white"/>
<path d="M39.2812 5.65371V22.509H35.7354V15.6447H22.7302V22.509H19.1728V5.65371H22.7302V12.4005H35.7354V5.65371H39.2812Z" fill="white"/>
<path d="M41.418 19.2649H42.3651C42.4267 19.2022 42.5152 19.1043 42.6307 18.9711C42.7539 18.83 42.9657 18.5166 43.2659 18.0307C43.5662 17.5371 43.828 16.9964 44.0513 16.4087C44.2823 15.821 44.4902 15.0256 44.675 14.0226C44.8675 13.0196 44.9638 11.9578 44.9638 10.8373V5.65371H56.4328V19.2649H58.4541V26H54.8967V22.509H44.9638V26H41.418V19.2649ZM48.5096 10.8373C48.5096 11.9578 48.4172 13.0157 48.2324 14.0108C48.0553 15.006 47.8397 15.8092 47.5856 16.4204C47.3392 17.0316 47.089 17.5606 46.8349 18.0072C46.5808 18.4539 46.369 18.7752 46.1996 18.9711L45.9109 19.2649H52.887V8.90958H48.5096V10.8373Z" fill="white"/>
<path d="M61.1683 5.65371H68.1444C69.8461 5.65371 71.2552 6.19831 72.3717 7.28752C73.4959 8.3689 74.058 9.71278 74.058 11.3192C74.058 12.9177 73.4998 14.2616 72.3833 15.3508C71.2668 16.4322 69.8538 16.9729 68.1444 16.9729H64.7257V22.509H61.1683V5.65371ZM68.0289 8.90958H64.7257V13.717H68.0289C68.7373 13.717 69.3264 13.4858 69.7961 13.0235C70.2735 12.5612 70.5122 11.9931 70.5122 11.3192C70.5122 10.6453 70.2735 10.0772 69.7961 9.61483C69.3264 9.14467 68.7373 8.90958 68.0289 8.90958Z" fill="white"/>
<path d="M80.8031 19.2649H95.587V22.509H77.2458V5.65371H95.3445V8.90958H80.8031V12.283H93.4503V15.5271H80.8031V19.2649Z" fill="white"/>
<path d="M105.208 1.03436C105.478 1.30862 105.816 1.44575 106.224 1.44575C106.633 1.44575 106.971 1.30862 107.241 1.03436C107.51 0.760096 107.645 0.41531 107.645 0H110.013C110.013 1.08921 109.663 1.98644 108.962 2.69168C108.261 3.38909 107.349 3.73779 106.224 3.73779C105.108 3.73779 104.199 3.38909 103.499 2.69168C102.798 1.98644 102.448 1.08921 102.448 0H104.804C104.804 0.41531 104.939 0.760096 105.208 1.03436ZM113.674 22.509H110.128V11.8011L101.974 22.509H98.8903V5.65371H102.448V16.3734L110.602 5.65371H113.674V22.509Z" fill="white"/>
<path d="M125.501 19.2649H126.448C126.51 19.2022 126.599 19.1043 126.714 18.9711C126.837 18.83 127.049 18.5166 127.349 18.0307C127.65 17.5371 127.911 16.9964 128.135 16.4087C128.366 15.821 128.574 15.0256 128.758 14.0226C128.951 13.0196 129.047 11.9578 129.047 10.8373V5.65371H140.516V19.2649H142.537V26H138.98V22.509H129.047V26H125.501V19.2649ZM132.593 10.8373C132.593 11.9578 132.501 13.0157 132.316 14.0108C132.139 15.006 131.923 15.8092 131.669 16.4204C131.423 17.0316 131.172 17.5606 130.918 18.0072C130.664 18.4539 130.452 18.7752 130.283 18.9711L129.994 19.2649H136.97V8.90958H132.593V10.8373Z" fill="white"/>
<path d="M163.35 5.65371V22.509H159.805V5.65371H163.35ZM151.997 22.509H145.252V5.65371H148.809V11.1899H151.997C153.698 11.1899 155.108 11.7345 156.224 12.8237C157.348 13.9051 157.91 15.2489 157.91 16.8553C157.91 18.4617 157.348 19.8056 156.224 20.887C155.108 21.9684 153.698 22.509 151.997 22.509ZM148.809 19.2649H151.881C152.59 19.2649 153.179 19.0338 153.648 18.5714C154.126 18.1013 154.365 17.5292 154.365 16.8553C154.365 16.1814 154.126 15.6133 153.648 15.151C153.179 14.6808 152.59 14.4458 151.881 14.4458H148.809V19.2649Z" fill="white"/>
<path d="M171.17 19.2649H180.629C181.26 19.2649 181.792 19.0612 182.223 18.6537C182.654 18.2384 182.87 17.7604 182.87 17.2197C182.87 16.6712 182.654 16.1932 182.223 15.7857C181.792 15.3704 181.26 15.1627 180.629 15.1627H171.17V19.2649ZM180.744 22.509H167.612V5.65371H185.006V8.90958H171.17V11.9186H180.744C182.369 11.9186 183.721 12.4358 184.799 13.4702C185.876 14.5045 186.415 15.7544 186.415 17.2197C186.415 18.6772 185.876 19.9231 184.799 20.9575C183.721 21.9919 182.369 22.509 180.744 22.509Z" fill="white"/>
<path d="M193.877 10.1555C192.845 11.2212 192.329 12.5338 192.329 14.0931C192.329 15.6447 192.845 16.9533 193.877 18.019C194.909 19.0847 196.164 19.6175 197.642 19.6175C199.128 19.6175 200.387 19.0847 201.419 18.019C202.451 16.9533 202.967 15.6447 202.967 14.0931C202.967 12.5338 202.451 11.2212 201.419 10.1555C200.387 9.08198 199.128 8.54521 197.642 8.54521C196.164 8.54521 194.909 9.08198 193.877 10.1555ZM191.255 20.2993C189.522 18.5753 188.656 16.5027 188.656 14.0814C188.656 11.66 189.522 9.59132 191.255 7.87523C192.995 6.15913 195.124 5.30108 197.642 5.30108C200.168 5.30108 202.297 6.15913 204.029 7.87523C205.769 9.59132 206.639 11.66 206.639 14.0814C206.639 16.5027 205.769 18.5753 204.029 20.2993C202.297 22.0154 200.168 22.8734 197.642 22.8734C195.124 22.8734 192.995 22.0154 191.255 20.2993Z" fill="white"/>
<path d="M223.375 22.509H209.954V5.65371H222.971C224.472 5.65371 225.712 6.10036 226.69 6.99367C227.676 7.88698 228.168 8.92526 228.168 10.1085C228.168 10.5552 228.107 10.9822 227.984 11.3897C227.86 11.7893 227.703 12.1224 227.51 12.3888C227.318 12.6552 227.125 12.8864 226.933 13.0823C226.748 13.2703 226.594 13.4036 226.471 13.4819L226.274 13.5995C226.351 13.6308 226.447 13.6778 226.563 13.7405C226.686 13.7954 226.906 13.9403 227.221 14.1754C227.537 14.4027 227.814 14.6534 228.053 14.9277C228.292 15.2019 228.507 15.5781 228.7 16.0561C228.9 16.5262 229 17.0316 229 17.5723C229 18.9201 228.473 20.0799 227.418 21.0515C226.363 22.0232 225.015 22.509 223.375 22.509ZM213.512 19.5H223.202C223.849 19.5 224.384 19.2923 224.807 18.877C225.239 18.4617 225.454 17.9485 225.454 17.3373C225.454 16.726 225.239 16.2128 224.807 15.7975C224.384 15.3743 223.849 15.1627 223.202 15.1627H213.512V19.5ZM222.728 8.66275H213.512V12.283H222.728C223.314 12.283 223.776 12.1184 224.114 11.7893C224.453 11.4602 224.623 11.0214 224.623 10.4729C224.623 9.92435 224.453 9.48553 224.114 9.15642C223.776 8.82731 223.314 8.66275 222.728 8.66275Z" fill="white"/>
</svg>
