<svg width="87" height="87" viewBox="0 0 87 87" fill="none" xmlns="http://www.w3.org/2000/svg">
<circle cx="43.5" cy="43.5" r="43.5" fill="#00C0C0"/>
<mask id="mask0_455_424" style="mask-type:alpha" maskUnits="userSpaceOnUse" x="0" y="0" width="87" height="87">
<circle cx="43.5" cy="43.5" r="43.5" fill="#00C0C0"/>
</mask>
<g mask="url(#mask0_455_424)">
<circle cx="30" cy="69" r="25" fill="#F1FFFF"/>
<circle cx="58" cy="69" r="25" fill="#F1FFFF"/>
<circle cx="43.5" cy="43.5" r="43.5" fill="url(#paint0_linear_455_424)" fill-opacity="0.4"/>
<path d="M55.8496 61.8491V61.8491C59.2115 60.8414 61.8417 58.2112 62.8495 54.8492V54.8492V54.8492C63.8572 58.2112 66.4874 60.8414 69.8494 61.8491V61.8491V61.8491C66.4874 62.8569 63.8572 65.4871 62.8495 68.849V68.849V68.849C61.8417 65.4871 59.2115 62.8569 55.8496 61.8491V61.8491Z" fill="white"/>
<path d="M55.8496 21.8491V21.8491C59.2115 20.8414 61.8417 18.2112 62.8495 14.8492V14.8492V14.8492C63.8572 18.2112 66.4874 20.8414 69.8494 21.8491V21.8491V21.8491C66.4874 22.8569 63.8572 25.4871 62.8495 28.849V28.849V28.849C61.8417 25.4871 59.2115 22.8569 55.8496 21.8491V21.8491Z" fill="white"/>
<path d="M70.8496 31.8491V31.8491C72.2903 31.4173 73.4174 30.2902 73.8492 28.8495V28.8495V28.8495C74.2811 30.2902 75.4082 31.4173 76.8489 31.8491V31.8491V31.8491C75.4082 32.281 74.2811 33.4081 73.8492 34.8488V34.8488V34.8488C73.4174 33.4081 72.2903 32.281 70.8496 31.8491V31.8491Z" fill="white"/>
<path d="M50.8496 71.8491V71.8491C52.2903 71.4173 53.4174 70.2902 53.8492 68.8495V68.8495V68.8495C54.2811 70.2902 55.4082 71.4173 56.8489 71.8491V71.8491V71.8491C55.4082 72.281 54.2811 73.4081 53.8492 74.8488V74.8488V74.8488C53.4174 73.4081 52.2903 72.281 50.8496 71.8491V71.8491Z" fill="white"/>
<path d="M15.8496 25.8491V25.8491C19.2115 24.8414 21.8417 22.2112 22.8495 18.8492V18.8492V18.8492C23.8572 22.2112 26.4874 24.8414 29.8494 25.8491V25.8491V25.8491C26.4874 26.8569 23.8572 29.4871 22.8495 32.849V32.849V32.849C21.8417 29.4871 19.2115 26.8569 15.8496 25.8491V25.8491Z" fill="white"/>
</g>
<defs>
<linearGradient id="paint0_linear_455_424" x1="43.5" y1="0" x2="43.5" y2="87" gradientUnits="userSpaceOnUse">
<stop offset="0.464018" stop-color="#00C0C0" stop-opacity="0"/>
<stop offset="1" stop-color="#00C0C0"/>
</linearGradient>
</defs>
</svg>
