<svg width="32" height="32" viewBox="0 0 32 32" fill="none" xmlns="http://www.w3.org/2000/svg">
<circle cx="16" cy="16" r="16" fill="#20CA33"/>
<path d="M21.8624 10.0637C22.6465 10.8851 23.2439 11.7812 23.6919 12.7893C24.14 13.7974 24.364 14.8429 24.364 15.9257C24.364 17.4192 23.9533 18.8007 23.2065 20.0702C22.4598 21.3396 21.4143 22.3478 20.1448 23.0945C18.8754 23.8413 17.4939 24.2146 16.0004 24.2146C14.5815 24.2146 13.2374 23.8786 12.0426 23.2065L7.63672 24.364L8.83152 20.0702C8.08477 18.8007 7.71139 17.4192 7.71139 15.9257C7.71139 14.4322 8.08477 13.0507 8.83152 11.7812C9.57828 10.5117 10.5864 9.5036 11.8559 8.75685C13.1254 8.0101 14.5068 7.63672 16.0004 7.63672C17.0831 7.63672 18.1286 7.86074 19.1367 8.27146C20.1448 8.71951 21.0409 9.31691 21.8624 10.0637ZM16.0004 22.8331C17.2325 22.8331 18.39 22.5344 19.4728 21.8997C20.5182 21.3023 21.377 20.4435 22.0117 19.3981C22.6465 18.3526 22.9825 17.1952 22.9825 15.9257C22.9825 15.0296 22.7958 14.1708 22.4224 13.312C22.0491 12.4906 21.5263 11.7439 20.8543 11.0718C20.1822 10.3997 19.4354 9.91432 18.614 9.54094C17.7926 9.2049 16.8965 9.01821 16.0004 9.01821C14.7309 9.01821 13.5734 9.35425 12.528 9.95165C11.4825 10.5864 10.6237 11.4452 10.0263 12.4906C9.39159 13.5361 9.09289 14.6935 9.09289 15.9257C9.09289 17.2698 9.42893 18.4646 10.1757 19.5848L10.325 19.8461L9.61561 22.3851L12.2293 21.713L12.4906 21.8624C13.5361 22.5344 14.7309 22.8331 16.0004 22.8331ZM19.7715 17.6432L19.8835 17.7179C20.0328 17.7926 20.1448 17.8672 20.1822 17.9046C20.1822 17.9793 20.1822 18.0913 20.1822 18.278C20.1822 18.502 20.1075 18.6887 20.0328 18.9127C19.9581 19.1367 19.7341 19.3234 19.4354 19.5474C19.1367 19.7715 18.8754 19.8835 18.6513 19.8835C18.278 19.9581 17.9419 19.9581 17.6432 19.8835C17.2698 19.8088 16.7471 19.6594 16.1497 19.3607C14.8802 18.838 13.7228 17.7926 12.6773 16.2991L12.6026 16.2244C12.0426 15.4776 11.7812 14.7682 11.7812 14.0961C11.7812 13.4614 12.0052 12.9013 12.4533 12.4159L12.4906 12.3786C12.64 12.2293 12.8267 12.1172 13.0507 12.1172H13.4987C13.5734 12.1172 13.6481 12.1546 13.7228 12.1919C13.7974 12.2293 13.8348 12.3039 13.9094 12.4533L14.5442 13.9841C14.6189 14.1335 14.6189 14.2828 14.5815 14.3575C14.4322 14.6189 14.2828 14.8429 14.0961 15.0296C13.9841 15.1416 13.9094 15.2163 13.9094 15.2909C13.8721 15.3656 13.9094 15.403 13.9841 15.4776C14.3202 16.1497 14.7309 16.6351 15.2163 17.0085C15.5523 17.3072 16.075 17.6059 16.7844 17.9419C16.9711 18.0539 17.1205 18.0539 17.2325 17.9046C17.5312 17.5312 17.7552 17.2698 17.9046 17.0831C17.9419 17.0085 18.0166 16.9338 18.0913 16.9338C18.1659 16.9338 18.2406 16.9711 18.3526 16.9711C18.5393 17.0458 19.0247 17.2698 19.7715 17.6432Z" fill="white"/>
</svg>
