<svg width="85" height="85" viewBox="0 0 85 85" fill="none" xmlns="http://www.w3.org/2000/svg">
<rect width="85" height="85" rx="42.5" fill="#0077FF"/>
<path d="M62.974 32.925C62.803 33.8 62.119 35.2875 60.9219 37.3C60.0669 38.7875 59.0409 40.45 57.8439 42.375C56.8178 43.95 56.2193 44.7375 56.2193 44.7375C55.8773 45.2625 55.7063 45.7 55.7063 45.9625C55.7063 46.3125 55.8773 46.6625 56.2193 47.0125L56.9888 47.8875C61.0929 52.2625 63.4015 55.2375 63.9145 56.8125C64.0855 57.5125 64 58.125 63.658 58.475C63.316 58.825 62.8885 59 62.2045 59H57.1599C56.4758 59 55.9628 58.825 55.4498 58.3875C55.1078 58.2125 54.4238 57.6 53.5688 56.55C52.7138 55.5 51.9442 54.625 51.2602 53.925C48.9517 51.7375 47.2416 50.6 46.2156 50.6C45.7026 50.6 45.3606 50.6875 45.1896 50.8625C45.0186 51.0375 44.9331 51.475 44.9331 52C44.8476 52.4375 44.8476 53.3125 44.8476 54.7125V56.9875C44.8476 57.6875 44.6766 58.2125 44.3346 58.475C43.8216 58.825 42.7955 59 41.2565 59C38.5204 59 35.8699 58.2125 33.1338 56.55C30.3978 54.975 28.0037 52.6125 25.9517 49.55C23.9851 46.925 22.3606 44.2125 21.0781 41.4125C20.052 39.3125 19.197 37.3875 18.5985 35.55C18.171 34.15 18 33.1 18 32.4875C18 31.525 18.513 31 19.71 31H24.7546C25.3532 31 25.7807 31.175 26.1227 31.4375C26.4647 31.7875 26.7212 32.3125 26.9777 33.0125C27.7472 35.375 28.6877 37.65 29.8848 39.8375C30.9108 41.9375 31.9368 43.6 32.9628 44.825C33.9888 46.1375 34.7584 46.75 35.3569 46.75C35.6989 46.75 35.8699 46.6625 36.0409 46.4C36.2119 46.1375 36.2974 45.6125 36.2974 44.825V37.2125C36.2119 36.3375 36.0409 35.4625 35.6989 34.7625C35.5279 34.4125 35.1859 33.975 34.8439 33.45C34.4164 32.925 34.2454 32.575 34.2454 32.225C34.2454 31.875 34.3309 31.6125 34.5874 31.35C34.8439 31.175 35.1859 31 35.5279 31H43.4796C43.9926 31 44.3346 31.175 44.5056 31.4375C44.6766 31.7875 44.8476 32.225 44.8476 32.925V43.075C44.8476 43.6 44.9331 44.0375 45.1041 44.2125C45.2751 44.475 45.4461 44.5625 45.7026 44.5625C45.9591 44.5625 46.3011 44.475 46.6431 44.3C46.9851 44.125 47.4126 43.6875 48.0112 42.9875C49.0372 41.7625 50.1487 40.275 51.2602 38.4375C51.9442 37.2125 52.7138 35.8125 53.3978 34.2375L54.2528 32.4875C54.5948 31.525 55.3643 31 56.3903 31H61.4349C62.803 31 63.316 31.7 62.974 32.925Z" fill="white"/>
</svg>
