<svg width="85" height="86" viewBox="0 0 85 86" fill="none" xmlns="http://www.w3.org/2000/svg">
<rect y="0.5" width="85" height="85" rx="42.5" fill="#00ACEE"/>
<path d="M59.9124 30.6289C60.0954 29.3639 60.0039 28.5506 59.4549 28.0085C58.9058 27.4663 58.1738 27.376 57.2587 27.647L20.931 41.472C19.65 42.0141 19.0094 42.5563 19.0094 43.0985C18.9179 43.731 19.3755 44.1828 20.4735 44.4538L29.8071 47.3453L51.4024 33.8818C51.6769 33.7011 51.9514 33.6107 52.2259 33.6107C52.5004 33.6107 52.6835 33.6107 52.775 33.7915C52.8665 33.9722 52.775 34.0625 52.5919 34.2433L35.1144 49.8754L34.3824 59.3631C34.8399 59.3631 35.2059 59.2727 35.5719 59.092C35.7549 59.0017 35.9379 58.8209 36.304 58.4595L40.8792 54.1223L50.3043 60.9896C51.1279 61.5317 51.8599 61.6221 52.4089 61.351C52.958 61.0799 53.4155 60.4474 53.69 59.3631L59.9124 30.6289Z" fill="white"/>
</svg>
