<svg width="85" height="85" viewBox="0 0 85 85" fill="none" xmlns="http://www.w3.org/2000/svg">
<rect width="85" height="85" rx="42.5" fill="#00ACEE"/>
<path fill-rule="evenodd" clip-rule="evenodd" d="M63 30.9091C61.5629 31.5697 60.021 32.0182 58.4035 32.2182C60.0559 31.1879 61.3243 29.5515 61.9178 27.6061C60.3701 28.5636 58.6596 29.2545 56.8384 29.6303C55.378 28.0121 53.3009 27 50.9969 27C46.5808 27 42.9967 30.7333 42.9967 35.3333C42.9967 35.9879 43.0665 36.6242 43.2062 37.2303C36.5559 36.8848 30.6619 33.5636 26.7171 28.5212C26.0306 29.7515 25.6349 31.1818 25.6349 32.7091C25.6349 35.6 27.0488 38.1515 29.1957 39.6424C27.8866 39.6 26.6531 39.2242 25.5709 38.6C25.5709 38.6364 25.5709 38.6667 25.5709 38.703C25.5709 42.7394 28.3288 46.1091 31.9885 46.8727C31.3194 47.0606 30.6096 47.1636 29.8823 47.1636C29.3645 47.1636 28.8641 47.1091 28.3754 47.0121C29.3936 50.3212 32.3492 52.7333 35.846 52.8C33.1056 55.0364 29.6612 56.3697 25.9084 56.3697C25.2626 56.3697 24.6284 56.3273 24 56.2545C27.5375 58.6182 31.7441 60 36.265 60C50.9794 60 59.0261 47.303 59.0261 36.2909C59.0261 35.9273 59.0203 35.5697 59.0028 35.2121C60.568 34.0364 61.9236 32.5697 62.9942 30.897L63 30.9091Z" fill="white"/>
</svg>
