<svg width="85" height="85" viewBox="0 0 85 85" fill="none" xmlns="http://www.w3.org/2000/svg">
<path d="M42.5 85C65.9721 85 85 65.9721 85 42.5C85 19.0279 65.9721 0 42.5 0C19.0279 0 0 19.0279 0 42.5C0 65.9721 19.0279 85 42.5 85Z" fill="#1A74E4"/>
<path d="M45.3327 60V44.0348H50.9345L51.7732 37.8129H45.3327V33.8406C45.3327 32.0392 45.8556 30.8116 48.5559 30.8116L52 30.8102V25.2452C51.4044 25.1694 49.3599 25 46.9814 25C42.0157 25 38.6161 27.8996 38.6161 33.2244V37.8129H33V44.0348H38.6161V60H45.3327Z" fill="white"/>
</svg>
