<svg width="85" height="85" viewBox="0 0 85 85" fill="none" xmlns="http://www.w3.org/2000/svg">
<g clip-path="url(#clip0_477_647)">
<path d="M31.5034 83.5517C54.1757 89.6268 77.48 76.172 83.5551 53.4997C89.6301 30.8274 76.1753 7.52308 53.503 1.44805C30.8307 -4.62698 7.52639 8.82778 1.45136 31.5001C-4.62366 54.1724 8.83109 77.4767 31.5034 83.5517Z" fill="url(#paint0_linear_477_647)"/>
<path d="M51.4899 22H34.514C27.6148 22 22.002 27.6129 22.002 34.512V51.488C22.002 58.3871 27.6148 64 34.514 64H51.4899C58.3891 64 64.002 58.3871 64.002 51.488V34.512C64.0019 27.6129 58.389 22 51.4899 22ZM59.7768 51.488C59.7768 56.0646 56.0666 59.7748 51.4899 59.7748H34.514C29.9373 59.7748 26.2272 56.0646 26.2272 51.488V34.512C26.2272 29.9353 29.9373 26.2252 34.514 26.2252H51.4899C56.0666 26.2252 59.7768 29.9353 59.7768 34.512V51.488Z" fill="white" stroke="white" stroke-width="0.2"/>
<path d="M43.002 32.5C37.2122 32.5 32.502 37.2103 32.502 43C32.502 48.7896 37.2122 53.5 43.002 53.5C48.7917 53.5 53.502 48.7897 53.502 43C53.502 37.2102 48.7917 32.5 43.002 32.5ZM43.002 49.4159C39.4585 49.4159 36.5861 46.5435 36.5861 43C36.5861 39.4566 39.4586 36.5841 43.002 36.5841C46.5454 36.5841 49.4178 39.4566 49.4178 43C49.4178 46.5434 46.5453 49.4159 43.002 49.4159Z" fill="white" stroke="white" stroke-width="0.2"/>
<path d="M53.502 35.125C54.9517 35.125 56.127 33.9497 56.127 32.5C56.127 31.0503 54.9517 29.875 53.502 29.875C52.0522 29.875 50.877 31.0503 50.877 32.5C50.877 33.9497 52.0522 35.125 53.502 35.125Z" fill="white"/>
</g>
<defs>
<linearGradient id="paint0_linear_477_647" x1="53.503" y1="1.44805" x2="31.5034" y2="83.5517" gradientUnits="userSpaceOnUse">
<stop stop-color="#6E50CE"/>
<stop offset="0.301124" stop-color="#C43B55"/>
<stop offset="0.587135" stop-color="#DF6B3E"/>
<stop offset="1" stop-color="#F2CF77"/>
</linearGradient>
<clipPath id="clip0_477_647">
<rect width="85" height="85" fill="white"/>
</clipPath>
</defs>
</svg>
